# xmcd CD database file
# Copyright (C) 1996 Ti Kan
#
# Track frame offsets:
# 	187
# 	12022
# 	21557
# 	32917
# 	44120
# 	55942
# 	64560
# 	76972
# 	88580
# 	99520
# 	112167
# 	123095
# 	137615
# 	148872
# 	160355
#
# Disc length: 2274 seconds
#
# Revision: 1
# Processed by: cddbd v1.4b41PL1 Copyright (c) Steve Scherf et al.
# Submitted via: DiscPlay 3.4.1
#
DISCID=cf08e00f
DTITLE=Patsy Cline - Patsy Cline Vol 1
DYEAR=1900
DGENRE=
TTITLE0=Walkin' After Midnight
TTITLE1=Love Me, Love Me, Honey Do
TTITLE2=Just Out Of Reach
TTITLE3=Don't Ever Leave Me Agin
TTITLE4=If I Could Only Stay Asleep
TTITLE5=Come On In
TTITLE6=A Poor Man's Roses
TTITLE7=I've Loved And Lost Again
TTITLE8=There He Goes
TTITLE9=Just A Closer Walk With Thee
TTITLE10=That's How Much I Love You
TTITLE11=Then You'll Know
TTITLE12=Stop The World And Let Me Off
TTITLE13=Crazy Dreams
TTITLE14=Pick Me Up On Your Way Down
EXTD=
EXTT0=
EXTT1=
EXTT2=
EXTT3=
EXTT4=
EXTT5=
EXTT6=
EXTT7=
EXTT8=
EXTT9=
EXTT10=
EXTT11=
EXTT12=
EXTT13=
EXTT14=
PLAYORDER=
